<svg width="25.000000" height="22.000000" viewBox="0 0 25 22" fill="none" xmlns="http://www.w3.org/2000/svg" xmlns:xlink="http://www.w3.org/1999/xlink">
	<desc>
			Created with Pixso.
	</desc>
	<defs/>
	<path id="Vector" d="M24.53 20.21L22.87 5.21C22.83 4.87 22.66 4.55 22.41 4.32C22.15 4.09 21.81 3.96 21.47 3.96L17.13 3.96C17.01 2.68 16.42 1.49 15.47 0.62C14.52 -0.24 13.28 -0.72 11.99 -0.72C10.71 -0.72 9.47 -0.24 8.52 0.62C7.57 1.49 6.98 2.68 6.86 3.96L2.52 3.96C2.17 3.96 1.84 4.09 1.58 4.32C1.33 4.55 1.16 4.87 1.12 5.21L-0.54 20.21C-0.57 20.41 -0.55 20.61 -0.48 20.8C-0.42 20.99 -0.33 21.16 -0.19 21.31C-0.06 21.46 0.1 21.57 0.28 21.65C0.46 21.74 0.66 21.78 0.85 21.78L23.13 21.78C23.33 21.78 23.53 21.74 23.71 21.65C23.89 21.57 24.05 21.46 24.18 21.31C24.31 21.16 24.41 20.99 24.47 20.8C24.53 20.61 24.55 20.41 24.53 20.21ZM11.99 0.21C13.03 0.22 14.03 0.6 14.81 1.29C15.58 1.98 16.07 2.93 16.19 3.96L7.8 3.96C7.92 2.93 8.41 1.98 9.18 1.29C9.96 0.6 10.96 0.22 11.99 0.21ZM23.48 20.68C23.44 20.73 23.39 20.77 23.33 20.8C23.27 20.83 23.2 20.84 23.13 20.84L0.85 20.84C0.79 20.84 0.72 20.83 0.66 20.8C0.6 20.77 0.55 20.73 0.5 20.68C0.46 20.63 0.43 20.58 0.41 20.51C0.39 20.45 0.38 20.38 0.39 20.32L2.06 5.32C2.07 5.2 2.12 5.1 2.21 5.02C2.29 4.94 2.41 4.9 2.52 4.9L6.84 4.9L6.84 8.18C6.84 8.31 6.89 8.43 6.98 8.51C7.06 8.6 7.18 8.65 7.31 8.65C7.43 8.65 7.55 8.6 7.64 8.51C7.73 8.43 7.78 8.31 7.78 8.18L7.78 4.9L16.21 4.9L16.21 8.18C16.21 8.31 16.26 8.43 16.35 8.51C16.44 8.6 16.56 8.65 16.68 8.65C16.81 8.65 16.93 8.6 17.01 8.51C17.1 8.43 17.15 8.31 17.15 8.18L17.15 4.9L21.47 4.9C21.58 4.9 21.69 4.94 21.78 5.02C21.87 5.1 21.92 5.2 21.93 5.32L23.6 20.32C23.61 20.38 23.6 20.45 23.58 20.51C23.56 20.58 23.53 20.63 23.48 20.68Z" fill="#FFFFFF" fill-opacity="1.000000" fill-rule="nonzero"/>
</svg>
