<svg width="25.000000" height="25.000000" viewBox="0 0 25 25" fill="none" xmlns="http://www.w3.org/2000/svg" xmlns:xlink="http://www.w3.org/1999/xlink">
	<desc>
			Created with Pixso.
	</desc>
	<defs/>
	<path id="Vector" d="M12.48 8.32C10.19 8.32 8.32 10.19 8.32 12.49C8.32 14.78 10.19 16.65 12.48 16.65C14.78 16.65 16.65 14.78 16.65 12.49C16.65 10.19 14.78 8.32 12.48 8.32ZM24.98 12.49C24.98 10.76 24.99 9.05 24.9 7.33C24.8 5.33 24.95 2.95 23.48 1.49C22.02 0.02 19.64 0.17 17.64 0.08C15.92 -0.02 14.21 0 12.49 0C10.76 0 9.05 -0.02 7.33 0.08C5.33 0.17 2.95 0.02 1.48 1.49C0.02 2.95 0.17 5.33 0.08 7.33C-0.02 9.06 0 10.76 0 12.49C0 14.21 -0.02 15.92 0.08 17.64C0.17 19.64 0.02 22.02 1.48 23.49C2.95 24.95 5.33 24.8 7.33 24.9C9.06 24.99 10.76 24.98 12.49 24.98C14.21 24.98 15.92 24.99 17.64 24.9C19.64 24.8 22.02 24.95 23.48 23.49C24.95 22.02 24.8 19.64 24.9 17.64C25 15.92 24.98 14.21 24.98 12.49ZM12.48 18.9C8.94 18.9 6.07 16.03 6.07 12.49C6.07 8.94 8.94 6.08 12.48 6.08C16.03 6.08 18.89 8.94 18.89 12.49C18.89 16.03 16.03 18.9 12.48 18.9ZM19.16 7.31C18.33 7.31 17.66 6.64 17.66 5.81C17.66 4.99 18.33 4.32 19.16 4.32C19.98 4.32 20.65 4.99 20.65 5.81C20.65 6.01 20.61 6.21 20.54 6.39C20.46 6.57 20.35 6.73 20.21 6.87C20.08 7.01 19.91 7.12 19.73 7.2C19.55 7.27 19.35 7.31 19.16 7.31Z" fill="#43FFD2" fill-opacity="1.000000" fill-rule="nonzero"/>
</svg>
