<svg width="12.000000" height="13.000000" viewBox="0 0 12 13" fill="none" xmlns="http://www.w3.org/2000/svg" xmlns:xlink="http://www.w3.org/1999/xlink">
	<desc>
			Created with Pixso.
	</desc>
	<defs/>
	<path id="Vector" d="M11 12.66C11.55 12.66 12 12.21 12 11.66L12 9.33C12 8.78 11.55 8.33 11 8.33C10.21 8.33 9.45 8.21 8.71 7.96C8.54 7.91 8.35 7.9 8.17 7.94C8 7.99 7.83 8.08 7.7 8.21L6.74 9.17C5.08 8.26 3.72 6.9 2.82 5.24L3.77 4.29C4.04 4.03 4.14 3.64 4.02 3.27C3.78 2.54 3.66 1.77 3.66 1C3.66 0.44 3.21 0 2.66 0L0.33 0C-0.22 0 -0.67 0.44 -0.67 1C-0.67 7.43 4.56 12.66 11 12.66ZM0.33 0.66L2.66 0.66C2.75 0.66 2.83 0.7 2.9 0.76C2.96 0.82 3 0.91 3 1C3 1.85 3.13 2.68 3.39 3.48C3.41 3.53 3.41 3.59 3.4 3.65C3.38 3.71 3.35 3.77 3.31 3.81L2 5.12C3.09 7.27 4.7 8.88 6.87 9.98L8.17 8.68C8.21 8.64 8.27 8.61 8.33 8.59C8.39 8.58 8.45 8.58 8.51 8.6C9.31 8.86 10.14 9 11 9C11.18 9 11.33 9.15 11.33 9.33L11.33 11.66C11.33 11.84 11.18 12 11 12C4.93 12 0 7.06 0 1C0 0.91 0.03 0.82 0.09 0.76C0.16 0.7 0.24 0.66 0.33 0.66Z" fill="#43FFD2" fill-opacity="1.000000" fill-rule="nonzero"/>
</svg>
