<svg width="15.000000" height="15.000000" viewBox="0 0 15 15" fill="none" xmlns="http://www.w3.org/2000/svg" xmlns:xlink="http://www.w3.org/1999/xlink">
	<desc>
			Created with Pixso.
	</desc>
	<defs/>
	<path id="Vector" d="M13.94 13.55L10.72 10.32C11.81 9.13 12.39 7.55 12.34 5.93C12.28 4.32 11.59 2.78 10.42 1.67C9.25 0.55 7.69 -0.07 6.08 -0.05C4.46 -0.03 2.91 0.62 1.76 1.76C0.62 2.91 -0.03 4.45 -0.05 6.07C-0.07 7.69 0.55 9.25 1.67 10.42C2.78 11.59 4.32 12.28 5.93 12.33C7.55 12.39 9.13 11.81 10.32 10.72L13.55 13.94C13.6 14 13.67 14.03 13.75 14.03C13.82 14.03 13.89 14 13.94 13.94C14 13.89 14.03 13.82 14.03 13.75C14.03 13.67 14 13.6 13.94 13.55ZM0.53 6.15C0.53 5.04 0.86 3.95 1.47 3.03C2.09 2.1 2.97 1.38 4 0.95C5.03 0.53 6.16 0.42 7.25 0.63C8.34 0.85 9.34 1.39 10.13 2.17C10.92 2.96 11.45 3.96 11.67 5.05C11.89 6.14 11.77 7.28 11.35 8.3C10.92 9.33 10.2 10.21 9.28 10.83C8.35 11.45 7.26 11.78 6.15 11.78C4.66 11.77 3.23 11.18 2.18 10.13C1.12 9.07 0.53 7.64 0.53 6.15Z" fill="#FFFFFF" fill-opacity="1.000000" fill-rule="nonzero"/>
</svg>
