<svg width="0" height="0" class="hidden">
    <symbol xmlns="http://www.w3.org/2000/svg" xmlns:xlink="http://www.w3.org/1999/xlink" viewBox="0 0 81 5" id="arrow">
        <desc>Created with Pixso.</desc>
        <defs></defs>
        <path id="Arrow 12" d="M76.03 2.5L0 2.5L0 1.5L76.03 1.5L76.03 -0.87L81 2L76.03 4.86L76.03 2.5Z"
            fill-opacity="1.000000" fill-rule="evenodd"></path>
    </symbol>
    <symbol fill="none" xmlns="http://www.w3.org/2000/svg" xmlns:xlink="http://www.w3.org/1999/xlink"
        viewBox="0 0 25 22" id="cart">
        <desc>Created with Pixso.</desc>
        <defs></defs>
        <path id="Vector"
            d="M24.53 20.21L22.87 5.21C22.83 4.87 22.66 4.55 22.41 4.32C22.15 4.09 21.81 3.96 21.47 3.96L17.13 3.96C17.01 2.68 16.42 1.49 15.47 0.62C14.52 -0.24 13.28 -0.72 11.99 -0.72C10.71 -0.72 9.47 -0.24 8.52 0.62C7.57 1.49 6.98 2.68 6.86 3.96L2.52 3.96C2.17 3.96 1.84 4.09 1.58 4.32C1.33 4.55 1.16 4.87 1.12 5.21L-0.54 20.21C-0.57 20.41 -0.55 20.61 -0.48 20.8C-0.42 20.99 -0.33 21.16 -0.19 21.31C-0.06 21.46 0.1 21.57 0.28 21.65C0.46 21.74 0.66 21.78 0.85 21.78L23.13 21.78C23.33 21.78 23.53 21.74 23.71 21.65C23.89 21.57 24.05 21.46 24.18 21.31C24.31 21.16 24.41 20.99 24.47 20.8C24.53 20.61 24.55 20.41 24.53 20.21ZM11.99 0.21C13.03 0.22 14.03 0.6 14.81 1.29C15.58 1.98 16.07 2.93 16.19 3.96L7.8 3.96C7.92 2.93 8.41 1.98 9.18 1.29C9.96 0.6 10.96 0.22 11.99 0.21ZM23.48 20.68C23.44 20.73 23.39 20.77 23.33 20.8C23.27 20.83 23.2 20.84 23.13 20.84L0.85 20.84C0.79 20.84 0.72 20.83 0.66 20.8C0.6 20.77 0.55 20.73 0.5 20.68C0.46 20.63 0.43 20.58 0.41 20.51C0.39 20.45 0.38 20.38 0.39 20.32L2.06 5.32C2.07 5.2 2.12 5.1 2.21 5.02C2.29 4.94 2.41 4.9 2.52 4.9L6.84 4.9L6.84 8.18C6.84 8.31 6.89 8.43 6.98 8.51C7.06 8.6 7.18 8.65 7.31 8.65C7.43 8.65 7.55 8.6 7.64 8.51C7.73 8.43 7.78 8.31 7.78 8.18L7.78 4.9L16.21 4.9L16.21 8.18C16.21 8.31 16.26 8.43 16.35 8.51C16.44 8.6 16.56 8.65 16.68 8.65C16.81 8.65 16.93 8.6 17.01 8.51C17.1 8.43 17.15 8.31 17.15 8.18L17.15 4.9L21.47 4.9C21.58 4.9 21.69 4.94 21.78 5.02C21.87 5.1 21.92 5.2 21.93 5.32L23.6 20.32C23.61 20.38 23.6 20.45 23.58 20.51C23.56 20.58 23.53 20.63 23.48 20.68Z"
            fill="#FFFFFF" fill-opacity="1.000000" fill-rule="nonzero"></path>
    </symbol>
    <symbol fill="none" xmlns="http://www.w3.org/2000/svg" xmlns:xlink="http://www.w3.org/1999/xlink"
        viewBox="0 0 25 25" id="instagram">
        <desc>Created with Pixso.</desc>
        <defs></defs>
        <path id="Vector"
            d="M12.48 8.32C10.19 8.32 8.32 10.19 8.32 12.49C8.32 14.78 10.19 16.65 12.48 16.65C14.78 16.65 16.65 14.78 16.65 12.49C16.65 10.19 14.78 8.32 12.48 8.32ZM24.98 12.49C24.98 10.76 24.99 9.05 24.9 7.33C24.8 5.33 24.95 2.95 23.48 1.49C22.02 0.02 19.64 0.17 17.64 0.08C15.92 -0.02 14.21 0 12.49 0C10.76 0 9.05 -0.02 7.33 0.08C5.33 0.17 2.95 0.02 1.48 1.49C0.02 2.95 0.17 5.33 0.08 7.33C-0.02 9.06 0 10.76 0 12.49C0 14.21 -0.02 15.92 0.08 17.64C0.17 19.64 0.02 22.02 1.48 23.49C2.95 24.95 5.33 24.8 7.33 24.9C9.06 24.99 10.76 24.98 12.49 24.98C14.21 24.98 15.92 24.99 17.64 24.9C19.64 24.8 22.02 24.95 23.48 23.49C24.95 22.02 24.8 19.64 24.9 17.64C25 15.92 24.98 14.21 24.98 12.49ZM12.48 18.9C8.94 18.9 6.07 16.03 6.07 12.49C6.07 8.94 8.94 6.08 12.48 6.08C16.03 6.08 18.89 8.94 18.89 12.49C18.89 16.03 16.03 18.9 12.48 18.9ZM19.16 7.31C18.33 7.31 17.66 6.64 17.66 5.81C17.66 4.99 18.33 4.32 19.16 4.32C19.98 4.32 20.65 4.99 20.65 5.81C20.65 6.01 20.61 6.21 20.54 6.39C20.46 6.57 20.35 6.73 20.21 6.87C20.08 7.01 19.91 7.12 19.73 7.2C19.55 7.27 19.35 7.31 19.16 7.31Z"
            fill="#43FFD2" fill-opacity="1.000000" fill-rule="nonzero"></path>
    </symbol>
    <symbol fill="none" xmlns="http://www.w3.org/2000/svg" xmlns:xlink="http://www.w3.org/1999/xlink"
        viewBox="0 0 34 75" id="logo">
        <desc>Created with Pixso.</desc>
        <defs></defs>
        <path id="l" d="M30.57 58L5.8 58L5.8 14.36L9.78 14.36L9.78 54.42L30.57 54.42L30.57 58Z" fill="#8A8686"
            fill-opacity="1.000000" fill-rule="evenodd"></path>
        <path id="f"
            d="M16.15 62L12.83 62L12.83 25.63L33.86 25.63L33.86 28.61L16.15 28.61L16.15 42.31L32.21 42.31L32.21 45.28L16.15 45.28L16.15 62Z"
            fill="#FFFFFF" fill-opacity="1.000000" fill-rule="evenodd"></path>
    </symbol>
    <symbol fill="none" xmlns="http://www.w3.org/2000/svg" xmlns:xlink="http://www.w3.org/1999/xlink"
        viewBox="0 0 12 13" id="phone">
        <desc>Created with Pixso.</desc>
        <defs></defs>
        <path id="Vector"
            d="M11 12.66C11.55 12.66 12 12.21 12 11.66L12 9.33C12 8.78 11.55 8.33 11 8.33C10.21 8.33 9.45 8.21 8.71 7.96C8.54 7.91 8.35 7.9 8.17 7.94C8 7.99 7.83 8.08 7.7 8.21L6.74 9.17C5.08 8.26 3.72 6.9 2.82 5.24L3.77 4.29C4.04 4.03 4.14 3.64 4.02 3.27C3.78 2.54 3.66 1.77 3.66 1C3.66 0.44 3.21 0 2.66 0L0.33 0C-0.22 0 -0.67 0.44 -0.67 1C-0.67 7.43 4.56 12.66 11 12.66ZM0.33 0.66L2.66 0.66C2.75 0.66 2.83 0.7 2.9 0.76C2.96 0.82 3 0.91 3 1C3 1.85 3.13 2.68 3.39 3.48C3.41 3.53 3.41 3.59 3.4 3.65C3.38 3.71 3.35 3.77 3.31 3.81L2 5.12C3.09 7.27 4.7 8.88 6.87 9.98L8.17 8.68C8.21 8.64 8.27 8.61 8.33 8.59C8.39 8.58 8.45 8.58 8.51 8.6C9.31 8.86 10.14 9 11 9C11.18 9 11.33 9.15 11.33 9.33L11.33 11.66C11.33 11.84 11.18 12 11 12C4.93 12 0 7.06 0 1C0 0.91 0.03 0.82 0.09 0.76C0.16 0.7 0.24 0.66 0.33 0.66Z"
            fill="#43FFD2" fill-opacity="1.000000" fill-rule="nonzero"></path>
    </symbol>
    <symbol fill="none" xmlns="http://www.w3.org/2000/svg" xmlns:xlink="http://www.w3.org/1999/xlink"
        viewBox="0 0 15 15" id="search">
        <desc>Created with Pixso.</desc>
        <defs></defs>
        <path id="Vector"
            d="M13.94 13.55L10.72 10.32C11.81 9.13 12.39 7.55 12.34 5.93C12.28 4.32 11.59 2.78 10.42 1.67C9.25 0.55 7.69 -0.07 6.08 -0.05C4.46 -0.03 2.91 0.62 1.76 1.76C0.62 2.91 -0.03 4.45 -0.05 6.07C-0.07 7.69 0.55 9.25 1.67 10.42C2.78 11.59 4.32 12.28 5.93 12.33C7.55 12.39 9.13 11.81 10.32 10.72L13.55 13.94C13.6 14 13.67 14.03 13.75 14.03C13.82 14.03 13.89 14 13.94 13.94C14 13.89 14.03 13.82 14.03 13.75C14.03 13.67 14 13.6 13.94 13.55ZM0.53 6.15C0.53 5.04 0.86 3.95 1.47 3.03C2.09 2.1 2.97 1.38 4 0.95C5.03 0.53 6.16 0.42 7.25 0.63C8.34 0.85 9.34 1.39 10.13 2.17C10.92 2.96 11.45 3.96 11.67 5.05C11.89 6.14 11.77 7.28 11.35 8.3C10.92 9.33 10.2 10.21 9.28 10.83C8.35 11.45 7.26 11.78 6.15 11.78C4.66 11.77 3.23 11.18 2.18 10.13C1.12 9.07 0.53 7.64 0.53 6.15Z"
            fill="#FFFFFF" fill-opacity="1.000000" fill-rule="nonzero"></path>
    </symbol>
    <symbol fill="none" xmlns="http://www.w3.org/2000/svg" xmlns:xlink="http://www.w3.org/1999/xlink"
        viewBox="0 0 24 24" id="voice-call">
        <desc>Created with Pixso.</desc>
        <defs></defs>
        <path id="Vector"
            d="M19.99 24L3.99 24C1.99 24 1.46 23.7 0.87 23.12C0.29 22.53 -0.01 22 0 20L0 4C0 2 0.29 1.46 0.87 0.87C1.46 0.29 1.99 0 3.99 0L19.99 0C20.81 0 22 0.01 22.99 1C23.97 1.98 23.97 3.17 23.97 4L23.97 20C23.99 22 23.68 22.53 23.09 23.12C22.51 23.7 21.99 24 19.99 24ZM7.49 9L7.49 6.75C7.49 6.32 7.36 5.91 7.1 5.5C6.84 5.1 6.56 4.81 6.25 4.64C5.93 4.46 5.69 4.46 5.52 4.61L3.81 6.35C3.34 6.82 3.08 7.44 3.02 8.23C2.95 9.02 3.07 9.88 3.38 10.81C3.68 11.74 4.17 12.73 4.84 13.76C5.51 14.8 6.32 15.79 7.25 16.73C8.19 17.67 9.18 18.47 10.22 19.14C11.25 19.82 12.24 20.31 13.17 20.62C14.09 20.93 14.95 21.06 15.74 21C16.53 20.93 17.16 20.67 17.63 20.2L19.36 18.46C19.52 18.31 19.51 18.07 19.34 17.75C19.16 17.43 18.87 17.14 18.47 16.88C18.06 16.62 17.65 16.5 17.23 16.5L14.98 16.5L13.46 17.43C12.76 17.25 11.89 16.74 10.86 15.91C9.83 15.08 8.9 14.15 8.07 13.12C7.25 12.09 6.74 11.22 6.55 10.52L7.49 9ZM16.43 12.75L17.95 13C17.83 11.13 17.1 9.53 15.78 8.2C14.45 6.87 12.86 6.14 11 6.02L11.23 7.54C12.59 7.71 13.75 8.28 14.72 9.25C15.69 10.22 16.26 11.39 16.43 12.75ZM11.52 9.11L11.8 10.8C12.41 11.1 12.87 11.56 13.18 12.18L14.86 12.46C14.66 11.64 14.26 10.92 13.66 10.32C13.06 9.72 12.34 9.32 11.52 9.11ZM10.49 3L10.74 4.52C12.3 4.55 13.74 4.96 15.06 5.75C16.38 6.54 17.44 7.59 18.22 8.91C19.01 10.23 19.42 11.67 19.45 13.24L20.97 13.5C20.97 12.07 20.7 10.71 20.14 9.42C19.59 8.12 18.84 7 17.91 6.07C16.97 5.13 15.85 4.38 14.56 3.83C13.26 3.27 11.91 3 10.49 3Z"
            fill="#43FFD2" fill-opacity="1.000000" fill-rule="nonzero"></path>
    </symbol>
    <symbol fill="none" xmlns="http://www.w3.org/2000/svg" xmlns:xlink="http://www.w3.org/1999/xlink"
        viewBox="0 0 24 24" id="whatsapp">
        <desc>Created with Pixso.</desc>
        <defs></defs>
        <path id="Vector"
            d="M23.57 4.91C23.56 4.39 23.51 3.87 23.44 3.36C23.36 2.9 23.21 2.46 23 2.04C22.56 1.16 21.84 0.44 20.96 -0.01C20.54 -0.21 20.1 -0.36 19.65 -0.45C19.13 -0.52 18.61 -0.56 18.09 -0.57C17.87 -0.58 17.58 -0.58 17.45 -0.58L5.55 -0.59C5.41 -0.59 5.13 -0.58 4.91 -0.58C4.39 -0.57 3.87 -0.52 3.36 -0.45C2.9 -0.36 2.46 -0.22 2.04 -0.01C1.16 0.43 0.44 1.15 -0.01 2.03C-0.21 2.45 -0.36 2.89 -0.45 3.34C-0.52 3.86 -0.56 4.38 -0.57 4.9C-0.58 5.12 -0.59 5.41 -0.59 5.54L-0.59 17.44C-0.59 17.58 -0.58 17.86 -0.58 18.08C-0.57 18.6 -0.52 19.12 -0.45 19.63C-0.36 20.09 -0.22 20.53 -0.01 20.95C0.43 21.83 1.15 22.55 2.03 23C2.45 23.2 2.89 23.35 3.34 23.44C3.86 23.51 4.38 23.55 4.9 23.56C5.12 23.57 5.41 23.58 5.54 23.58L17.44 23.58C17.58 23.58 17.86 23.57 18.08 23.57C18.6 23.56 19.12 23.51 19.63 23.44C20.09 23.35 20.53 23.21 20.95 23C21.83 22.56 22.55 21.84 23 20.96C23.2 20.54 23.35 20.1 23.44 19.65C23.51 19.13 23.55 18.61 23.57 18.09C23.57 17.86 23.58 17.58 23.58 17.45L23.58 5.55C23.58 5.41 23.58 5.13 23.57 4.91ZM11.76 19.9L11.75 19.9C10.32 19.9 8.9 19.54 7.64 18.85L3.07 20.05L4.29 15.59C3.35 13.95 2.97 12.04 3.22 10.16C3.46 8.28 4.33 6.53 5.67 5.19C7.01 3.85 8.76 2.99 10.64 2.74C12.52 2.5 14.43 2.88 16.07 3.83C17.71 4.78 18.99 6.24 19.72 7.99C20.44 9.74 20.57 11.69 20.08 13.52C19.59 15.35 18.51 16.97 17 18.12C15.5 19.28 13.65 19.9 11.76 19.9Z"
            fill="#43FFD2" fill-opacity="1.000000" fill-rule="nonzero"></path>
        <path id="Vector"
            d="M11.76 4.12C10.48 4.12 9.22 4.47 8.12 5.12C7.02 5.77 6.11 6.7 5.49 7.82C4.87 8.94 4.56 10.2 4.6 11.48C4.63 12.76 5.01 14.01 5.69 15.09L5.86 15.36L5.14 18L7.85 17.29L8.11 17.45C9.21 18.1 10.47 18.45 11.75 18.45L11.76 18.45C13.66 18.45 15.48 17.69 16.82 16.35C18.16 15.01 18.92 13.19 18.92 11.29C18.92 9.39 18.16 7.57 16.82 6.22C15.48 4.88 13.66 4.12 11.76 4.12L11.76 4.12ZM15.97 14.36C15.81 14.62 15.6 14.85 15.35 15.02C15.1 15.2 14.82 15.32 14.52 15.38C14.07 15.46 13.6 15.43 13.16 15.3C12.75 15.17 12.34 15.02 11.94 14.84C10.45 14.1 9.18 12.98 8.26 11.59C7.75 10.96 7.45 10.18 7.38 9.37C7.37 9.03 7.44 8.7 7.57 8.39C7.7 8.08 7.89 7.81 8.13 7.58C8.2 7.49 8.29 7.43 8.39 7.38C8.49 7.33 8.6 7.31 8.71 7.31C8.85 7.31 8.99 7.31 9.12 7.31C9.25 7.32 9.43 7.26 9.6 7.68C9.78 8.11 10.21 9.17 10.27 9.28C10.3 9.34 10.32 9.4 10.32 9.47C10.33 9.53 10.31 9.6 10.29 9.66C10.23 9.79 10.16 9.91 10.07 10.02C9.96 10.14 9.84 10.3 9.75 10.39C9.64 10.5 9.53 10.62 9.65 10.83C9.98 11.38 10.38 11.89 10.85 12.32C11.36 12.78 11.95 13.14 12.58 13.39C12.8 13.5 12.92 13.48 13.05 13.34C13.17 13.19 13.58 12.71 13.73 12.49C13.87 12.28 14.02 12.31 14.21 12.39C14.41 12.46 15.47 12.98 15.68 13.09C15.9 13.2 16.04 13.25 16.1 13.34C16.16 13.68 16.11 14.04 15.97 14.36Z"
            fill="#43FFD2" fill-opacity="1.000000" fill-rule="nonzero"></path>
    </symbol>
    <symbol id="crooked-arrow" viewBox="0 0 10 61" fill="none" xmlns="http://www.w3.org/2000/svg"
        xmlns:xlink="http://www.w3.org/1999/xlink">
        <desc>
            Created with Pixso.
        </desc>
        <defs />
        <path id="Arrow 8"
            d="M6.47 56.91Q5.78 55.73 5.15 54.52Q4.47 53.21 3.86 51.86Q3.05 50.06 2.38 48.22Q1.71 46.38 1.17 44.48Q0.68 42.76 0.32 41.02Q-0.12 38.96 -0.39 36.87Q-0.63 35.04 -0.74 33.19Q-0.86 31.18 -0.83 29.15Q-0.8 27.13 -0.62 25.13Q-0.45 23.28 -0.15 21.45Q0.18 19.37 0.68 17.33Q1.1 15.59 1.64 13.89Q2.23 12.02 2.96 10.2Q3.69 8.37 4.56 6.6Q5.21 5.27 5.93 3.98Q7.15 1.79 8.58 -0.29L9.41 0.28Q8 2.32 6.79 4.48Q6.09 5.74 5.45 7.04Q4.61 8.78 3.89 10.57Q3.18 12.35 2.6 14.19Q2.07 15.86 1.65 17.56Q1.16 19.57 0.83 21.61Q0.54 23.41 0.38 25.22Q0.2 27.19 0.17 29.17Q0.14 31.15 0.26 33.13Q0.37 34.94 0.6 36.74Q0.87 38.8 1.3 40.82Q1.66 42.53 2.13 44.21Q2.66 46.07 3.32 47.87Q3.98 49.68 4.77 51.45Q5.37 52.77 6.03 54.05Q6.64 55.22 7.31 56.37L9.25 55.11L9.54 60.84L4.44 58.22L6.47 56.91Z"
            fill="#43FFD2" fill-opacity="1.000000" fill-rule="evenodd" />
    </symbol>
    <symbol id="mini-arrow" xmlns="http://www.w3.org/2000/svg" viewBox="0 0 24 24">
        <path d="m12 15.4l-6-6L7.4 8l4.6 4.6L16.6 8L18 9.4z" />
    </symbol>
    <symbol id="star" xmlns="http://www.w3.org/2000/svg" viewBox="0 0 24 24">
        <path
            d="m19.555 23.411l-6.664-3.285a1.261 1.261 0 0 0-1.202.045l.006-.003l-6.416 3.75a.61.61 0 0 1-.902-.626v.003l.994-7.542a1.248 1.248 0 0 0-.392-1.082l-.001-.001l-4.571-4.247a1.265 1.265 0 0 1 .648-2.17l.007-.001l5.987-1.108c.421-.078.765-.355.935-.727l.003-.008L10.478.746a1.272 1.272 0 0 1 2.271-.087l.003.007l2.881 5.471c.197.365.558.62.981.666h.006l6.045.681a1.265 1.265 0 0 1 .811 2.119l.001-.001l-4.27 4.562a1.251 1.251 0 0 0-.315 1.116l-.001-.008l1.52 7.453a.61.61 0 0 1-.86.683l.004.002z" />
    </symbol>
</svg>