<svg width="24.000000" height="24.000000" viewBox="0 0 24 24" fill="none" xmlns="http://www.w3.org/2000/svg" xmlns:xlink="http://www.w3.org/1999/xlink">
	<desc>
			Created with Pixso.
	</desc>
	<defs/>
	<path id="Vector" d="M19.99 24L3.99 24C1.99 24 1.46 23.7 0.87 23.12C0.29 22.53 -0.01 22 0 20L0 4C0 2 0.29 1.46 0.87 0.87C1.46 0.29 1.99 0 3.99 0L19.99 0C20.81 0 22 0.01 22.99 1C23.97 1.98 23.97 3.17 23.97 4L23.97 20C23.99 22 23.68 22.53 23.09 23.12C22.51 23.7 21.99 24 19.99 24ZM7.49 9L7.49 6.75C7.49 6.32 7.36 5.91 7.1 5.5C6.84 5.1 6.56 4.81 6.25 4.64C5.93 4.46 5.69 4.46 5.52 4.61L3.81 6.35C3.34 6.82 3.08 7.44 3.02 8.23C2.95 9.02 3.07 9.88 3.38 10.81C3.68 11.74 4.17 12.73 4.84 13.76C5.51 14.8 6.32 15.79 7.25 16.73C8.19 17.67 9.18 18.47 10.22 19.14C11.25 19.82 12.24 20.31 13.17 20.62C14.09 20.93 14.95 21.06 15.74 21C16.53 20.93 17.16 20.67 17.63 20.2L19.36 18.46C19.52 18.31 19.51 18.07 19.34 17.75C19.16 17.43 18.87 17.14 18.47 16.88C18.06 16.62 17.65 16.5 17.23 16.5L14.98 16.5L13.46 17.43C12.76 17.25 11.89 16.74 10.86 15.91C9.83 15.08 8.9 14.15 8.07 13.12C7.25 12.09 6.74 11.22 6.55 10.52L7.49 9ZM16.43 12.75L17.95 13C17.83 11.13 17.1 9.53 15.78 8.2C14.45 6.87 12.86 6.14 11 6.02L11.23 7.54C12.59 7.71 13.75 8.28 14.72 9.25C15.69 10.22 16.26 11.39 16.43 12.75ZM11.52 9.11L11.8 10.8C12.41 11.1 12.87 11.56 13.18 12.18L14.86 12.46C14.66 11.64 14.26 10.92 13.66 10.32C13.06 9.72 12.34 9.32 11.52 9.11ZM10.49 3L10.74 4.52C12.3 4.55 13.74 4.96 15.06 5.75C16.38 6.54 17.44 7.59 18.22 8.91C19.01 10.23 19.42 11.67 19.45 13.24L20.97 13.5C20.97 12.07 20.7 10.71 20.14 9.42C19.59 8.12 18.84 7 17.91 6.07C16.97 5.13 15.85 4.38 14.56 3.83C13.26 3.27 11.91 3 10.49 3Z" fill="#43FFD2" fill-opacity="1.000000" fill-rule="nonzero"/>
</svg>
