<svg width="24.000000" height="24.000000" viewBox="0 0 24 24" fill="none" xmlns="http://www.w3.org/2000/svg" xmlns:xlink="http://www.w3.org/1999/xlink">
	<desc>
			Created with Pixso.
	</desc>
	<defs/>
	<path id="Vector" d="M23.57 4.91C23.56 4.39 23.51 3.87 23.44 3.36C23.36 2.9 23.21 2.46 23 2.04C22.56 1.16 21.84 0.44 20.96 -0.01C20.54 -0.21 20.1 -0.36 19.65 -0.45C19.13 -0.52 18.61 -0.56 18.09 -0.57C17.87 -0.58 17.58 -0.58 17.45 -0.58L5.55 -0.59C5.41 -0.59 5.13 -0.58 4.91 -0.58C4.39 -0.57 3.87 -0.52 3.36 -0.45C2.9 -0.36 2.46 -0.22 2.04 -0.01C1.16 0.43 0.44 1.15 -0.01 2.03C-0.21 2.45 -0.36 2.89 -0.45 3.34C-0.52 3.86 -0.56 4.38 -0.57 4.9C-0.58 5.12 -0.59 5.41 -0.59 5.54L-0.59 17.44C-0.59 17.58 -0.58 17.86 -0.58 18.08C-0.57 18.6 -0.52 19.12 -0.45 19.63C-0.36 20.09 -0.22 20.53 -0.01 20.95C0.43 21.83 1.15 22.55 2.03 23C2.45 23.2 2.89 23.35 3.34 23.44C3.86 23.51 4.38 23.55 4.9 23.56C5.12 23.57 5.41 23.58 5.54 23.58L17.44 23.58C17.58 23.58 17.86 23.57 18.08 23.57C18.6 23.56 19.12 23.51 19.63 23.44C20.09 23.35 20.53 23.21 20.95 23C21.83 22.56 22.55 21.84 23 20.96C23.2 20.54 23.35 20.1 23.44 19.65C23.51 19.13 23.55 18.61 23.57 18.09C23.57 17.86 23.58 17.58 23.58 17.45L23.58 5.55C23.58 5.41 23.58 5.13 23.57 4.91ZM11.76 19.9L11.75 19.9C10.32 19.9 8.9 19.54 7.64 18.85L3.07 20.05L4.29 15.59C3.35 13.95 2.97 12.04 3.22 10.16C3.46 8.28 4.33 6.53 5.67 5.19C7.01 3.85 8.76 2.99 10.64 2.74C12.52 2.5 14.43 2.88 16.07 3.83C17.71 4.78 18.99 6.24 19.72 7.99C20.44 9.74 20.57 11.69 20.08 13.52C19.59 15.35 18.51 16.97 17 18.12C15.5 19.28 13.65 19.9 11.76 19.9Z" fill="#43FFD2" fill-opacity="1.000000" fill-rule="nonzero"/>
	<path id="Vector" d="M11.76 4.12C10.48 4.12 9.22 4.47 8.12 5.12C7.02 5.77 6.11 6.7 5.49 7.82C4.87 8.94 4.56 10.2 4.6 11.48C4.63 12.76 5.01 14.01 5.69 15.09L5.86 15.36L5.14 18L7.85 17.29L8.11 17.45C9.21 18.1 10.47 18.45 11.75 18.45L11.76 18.45C13.66 18.45 15.48 17.69 16.82 16.35C18.16 15.01 18.92 13.19 18.92 11.29C18.92 9.39 18.16 7.57 16.82 6.22C15.48 4.88 13.66 4.12 11.76 4.12L11.76 4.12ZM15.97 14.36C15.81 14.62 15.6 14.85 15.35 15.02C15.1 15.2 14.82 15.32 14.52 15.38C14.07 15.46 13.6 15.43 13.16 15.3C12.75 15.17 12.34 15.02 11.94 14.84C10.45 14.1 9.18 12.98 8.26 11.59C7.75 10.96 7.45 10.18 7.38 9.37C7.37 9.03 7.44 8.7 7.57 8.39C7.7 8.08 7.89 7.81 8.13 7.58C8.2 7.49 8.29 7.43 8.39 7.38C8.49 7.33 8.6 7.31 8.71 7.31C8.85 7.31 8.99 7.31 9.12 7.31C9.25 7.32 9.43 7.26 9.6 7.68C9.78 8.11 10.21 9.17 10.27 9.28C10.3 9.34 10.32 9.4 10.32 9.47C10.33 9.53 10.31 9.6 10.29 9.66C10.23 9.79 10.16 9.91 10.07 10.02C9.96 10.14 9.84 10.3 9.75 10.39C9.64 10.5 9.53 10.62 9.65 10.83C9.98 11.38 10.38 11.89 10.85 12.32C11.36 12.78 11.95 13.14 12.58 13.39C12.8 13.5 12.92 13.48 13.05 13.34C13.17 13.19 13.58 12.71 13.73 12.49C13.87 12.28 14.02 12.31 14.21 12.39C14.41 12.46 15.47 12.98 15.68 13.09C15.9 13.2 16.04 13.25 16.1 13.34C16.16 13.68 16.11 14.04 15.97 14.36Z" fill="#43FFD2" fill-opacity="1.000000" fill-rule="nonzero"/>
</svg>
